<?xml version="1.0" encoding="UTF-8"?>
<svg width="86px" height="10px" viewBox="0 0 86 10" version="1.1" xmlns="http://www.w3.org/2000/svg" xmlns:xlink="http://www.w3.org/1999/xlink">
    <title>USA EDITION</title>
    <g id="Page-1" stroke="none" stroke-width="1" fill="none" fill-rule="evenodd">
        <g id="LOGO-ELPAIS" transform="translate(-102.000000, -87.000000)" fill="#333333" fill-rule="nonzero">
            <g id="USA-EDITION" transform="translate(102.000000, 87.000000)">
                <path d="M5.00005369,9.96 C7.2861745,9.96 8.46265772,8.52950336 8.46265772,6.81825503 L8.46265772,1.69787919 C8.46265772,0.842255034 9.1845906,0.681825503 9.70598658,0.574872483 L9.70598658,0.120322148 L6.28348993,0.120322148 L6.28348993,0.574872483 C6.80488591,0.681825503 7.52681879,0.842255034 7.52681879,1.69787919 L7.52681879,6.91183893 C7.52681879,8.62308725 6.29685906,9.09100671 5.2941745,9.09100671 C3.91715436,9.09100671 2.87436242,8.36907383 2.87436242,6.7514094 L2.87436242,1.69787919 C2.87436242,0.842255034 3.5962953,0.681825503 4.11769128,0.574872483 L4.11769128,0.120322148 L1.46143638e-14,0.120322148 L1.46143638e-14,0.574872483 C0.521395973,0.681825503 1.24332886,0.842255034 1.24332886,1.69787919 L1.24332886,6.43055034 C1.24332886,8.46265772 2.17916779,9.96 5.00005369,9.96 Z" id="Path"></path>
                <path d="M13.1227536,9.94663087 C15.1949684,9.94663087 16.3981898,8.68993289 16.3981898,7.03216107 C16.3981898,5.57492617 15.3286596,4.77277852 14.1388073,4.17116779 L13.4703509,3.8369396 C12.7885254,3.50271141 11.8393174,3.03479195 11.8393174,2.15242953 C11.8393174,1.33691275 12.3072368,0.735302013 13.376767,0.735302013 C14.3393442,0.735302013 15.154861,1.08289933 15.3821361,2.58024161 L15.8634247,2.58024161 L15.8767939,0.32085906 C15.1281227,0.120322148 14.4462972,0 13.4569818,0 C11.4783509,0 10.4756663,1.25669799 10.4756663,2.71393289 C10.4756663,4.17116779 11.7056261,4.7594094 12.7617872,5.30754362 L13.2564449,5.56155705 C14.112069,6.00273826 14.9409549,6.44391946 14.9409549,7.47334228 C14.9409549,8.60971812 14.1922838,9.19795973 13.2430757,9.19795973 C11.7056261,9.19795973 11.3580288,8.58297987 10.9970623,6.97868456 L10.4221898,6.99205369 L10.4221898,9.7193557 C11.4382435,9.83967785 12.0665925,9.94663087 13.1227536,9.94663087 Z" id="Path"></path>
                <path d="M16.7133193,9.82630872 L19.7347421,9.82630872 L19.7347421,9.37175839 C18.7587958,9.25143624 18.5983663,9.02416107 18.5983663,8.79688591 C18.5983663,8.54287248 18.7053193,8.18190604 18.7454267,8.04821477 L19.2935609,6.14979866 L22.3684602,6.14979866 L23.1973461,8.51613423 C23.2240844,8.59634899 23.2641918,8.7434094 23.2641918,8.8904698 C23.2641918,9.13111409 22.7829032,9.2781745 22.2347689,9.37175839 L22.2347689,9.82630872 L25.8176951,9.82630872 L25.8176951,9.37175839 C25.4433595,9.31828188 25.1091314,9.15785235 24.9754401,8.7434094 L21.927279,0.0935838926 L20.2427689,0.0935838926 L20.2695072,0.280751678 L17.6491582,8.62308725 C17.4887287,9.11774497 17.1678696,9.31828188 16.7133193,9.37175839 L16.7133193,9.82630872 Z M19.5074669,5.40112752 L20.6973193,1.28343624 L20.7507958,1.28343624 L22.141185,5.40112752 L19.5074669,5.40112752 Z" id="Shape"></path>
                <path d="M29.3624238,9.82630872 L36.9961956,9.82630872 L37.2903164,6.99205369 L36.728813,6.99205369 C36.5550144,7.92789262 36.0870949,9.13111409 34.7100748,9.13111409 L32.7314439,9.13111409 C32.3838466,9.13111409 32.2367862,8.93057718 32.2367862,8.68993289 L32.2367862,5.00005369 L34.0148802,5.00005369 C34.9640882,5.00005369 35.044303,5.68187919 35.1646251,6.33696644 L35.7261285,6.33696644 L35.7261285,2.98131544 L35.1646251,2.98131544 C35.1378869,3.52944966 34.8303969,4.26475168 33.9747728,4.26475168 L32.2367862,4.26475168 L32.2367862,0.815516779 L34.8972426,0.815516779 C35.993511,0.815516779 36.2074171,1.43049664 36.407954,2.6738255 L36.9694573,2.6738255 L36.9961956,0.147060403 L36.9427191,0.0935838926 L35.4320077,0.120322148 L29.3624238,0.120322148 L29.3624238,0.574872483 C29.8838198,0.681825503 30.6057526,0.842255034 30.6057526,1.69787919 L30.6057526,8.27548993 C30.6057526,9.05089933 30.0576184,9.23806711 29.3624238,9.37175839 L29.3624238,9.82630872 Z" id="Path"></path>
                <path d="M37.9797814,9.82630872 L41.8568284,9.82630872 C44.7579291,9.82630872 46.8167747,7.70061745 46.8167747,4.85299329 C46.8167747,1.87167785 44.9183586,0.120322148 41.816721,0.120322148 L37.9797814,0.120322148 L37.9797814,0.574872483 C38.5011774,0.681825503 39.2231103,0.842255034 39.2231103,1.69787919 L39.2231103,8.27548993 C39.2231103,9.05089933 38.674976,9.23806711 37.9797814,9.37175839 L37.9797814,9.82630872 Z M41.2418485,9.15785235 C41.0413116,9.15785235 40.8675129,9.13111409 40.8675129,8.87710067 L40.8675129,0.762040268 L41.9504123,0.762040268 C44.3167478,0.762040268 45.1188955,3.02142282 45.1188955,4.91983893 C45.1188955,7.33965101 44.1696874,9.26480537 41.7632445,9.15785235 L41.2418485,9.15785235 Z" id="Shape"></path>
                <path d="M47.4928706,9.82630872 L51.6105618,9.82630872 L51.6105618,9.37175839 C50.9153672,9.23806711 50.367233,9.05089933 50.367233,8.27548993 L50.367233,1.69787919 C50.367233,0.842255034 51.0891659,0.681825503 51.6105618,0.574872483 L51.6105618,0.120322148 L47.4928706,0.120322148 L47.4928706,0.574872483 C48.0142665,0.681825503 48.7361994,0.842255034 48.7361994,1.69787919 L48.7361994,8.27548993 C48.7361994,9.05089933 48.1880652,9.23806711 47.4928706,9.37175839 L47.4928706,9.82630872 Z" id="Path"></path>
                <path d="M54.2786577,9.82630872 L58.396349,9.82630872 L58.396349,9.37175839 C57.7011544,9.23806711 57.1530201,9.05089933 57.1530201,8.27548993 L57.1530201,0.815516779 L58.4364564,0.815516779 C59.6263087,0.815516779 59.866953,1.59092617 60.0407517,2.6738255 L60.602255,2.6738255 L60.5621477,0.120322148 L60.5220403,0.0935838926 C60.281396,0.10695302 59.6129396,0.120322148 58.503302,0.120322148 L54.198443,0.120322148 C53.0888054,0.120322148 52.3936107,0.10695302 52.1529664,0.0935838926 L52.1128591,0.120322148 L52.0727517,2.6738255 L52.634255,2.6738255 C52.7813154,1.65777181 53.048698,0.815516779 54.2385503,0.815516779 L55.5219866,0.815516779 L55.5219866,8.27548993 C55.5219866,9.05089933 54.9738523,9.23806711 54.2786577,9.37175839 L54.2786577,9.82630872 Z" id="Path"></path>
                <path d="M61.0644449,9.82630872 L65.1821361,9.82630872 L65.1821361,9.37175839 C64.4869415,9.23806711 63.9388073,9.05089933 63.9388073,8.27548993 L63.9388073,1.69787919 C63.9388073,0.842255034 64.6607402,0.681825503 65.1821361,0.574872483 L65.1821361,0.120322148 L61.0644449,0.120322148 L61.0644449,0.574872483 C61.5858408,0.681825503 62.3077737,0.842255034 62.3077737,1.69787919 L62.3077737,8.27548993 C62.3077737,9.05089933 61.7596395,9.23806711 61.0644449,9.37175839 L61.0644449,9.82630872 Z" id="Path"></path>
                <path d="M70.363628,9.94663087 C72.9171314,9.94663087 74.7219636,7.94126174 74.7219636,4.85299329 C74.7219636,1.8449396 72.983977,0 70.2299367,0 C67.5828495,0 65.858232,2.01873826 65.858232,5.00005369 C65.858232,8.15516779 67.6229569,9.94663087 70.363628,9.94663087 Z M70.3903663,9.19795973 C68.4384736,9.19795973 67.5828495,7.99473826 67.5828495,5.04016107 C67.5828495,2.1390604 68.3448897,0.721932886 70.2165676,0.721932886 C72.0481381,0.721932886 72.9973461,2.12569128 72.9973461,5.0535302 C72.9973461,8.14179866 72.0481381,9.19795973 70.3903663,9.19795973 Z" id="Shape"></path>
                <path d="M82.6976031,9.86641611 L83.8206098,9.86641611 L83.8206098,1.67114094 C83.8206098,0.895731544 84.368744,0.708563758 85.0639386,0.574872483 L85.0639386,0.120322148 L81.6280729,0.120322148 L81.6280729,0.574872483 C82.3232675,0.708563758 82.8714017,0.895731544 82.8714017,1.67114094 L82.8714017,6.83162416 L82.8179252,6.83162416 L78.7537105,0.120322148 L75.3980594,0.120322148 L75.3980594,0.574872483 C75.9194554,0.681825503 76.6413883,0.842255034 76.6413883,1.69787919 L76.6413883,8.27548993 C76.6413883,9.05089933 76.0932541,9.23806711 75.3980594,9.37175839 L75.3980594,9.82630872 L78.8339252,9.82630872 L78.8339252,9.37175839 C78.1387306,9.23806711 77.5905964,9.05089933 77.5905964,8.27548993 L77.5905964,1.29680537 L77.6173346,1.29680537 L82.6976031,9.74609396 L82.6976031,9.86641611 Z" id="Path"></path>
            </g>
        </g>
    </g>
</svg>